<svg viewBox="0 0 72 72" xmlns="http://www.w3.org/2000/svg"><g fill="none" stroke="#000" stroke-linejoin="round"><circle cx="36" cy="36" r="26.68" stroke-linecap="round" stroke-width="4.74"/><path d="m54.49 54.46-36.46-36.46.4581-.4581" stroke-width="4.74"/><g clip-rule="evenodd" stroke-linecap="round" stroke-miterlimit="10" stroke-width="2"><path d="m0-4.844c-.205-.798-1.091-1.397-2.153-1.397-1.214 0-2.198.783-2.198 1.75 0 .966.956 1.963 2.176 2.385 1.22.4217 2.201 1.33 2.176 2.385-.02336.9667-.984 1.75-2.198 1.75-1.062 0-1.948-.6-2.153-1.398" transform="matrix(3.164 0 0 3.164 42.88 42.66)"/><path d="m-.834.834h1.668" transform="matrix(0 -3.164 -3.164 0 38.64 20.28)"/><path d="m-.834.834h1.668" transform="matrix(0 -3.164 -3.164 0 38.64 51.72)"/></g></g></svg>