<svg viewBox="0 0 1024 1024" xmlns="http://www.w3.org/2000/svg"><path d="m866.9 169.9-339.8-115.8c-4.1-1.4-9.6-2.1-15.1-2.1s-11 .7-15.1 2.1l-339.8 115.8c-8.3 2.8-15.1 12.4-15.1 21.2v482.4c0 8.8 5.7 20.4 12.6 25.9l344.7 268.6c3.5 2.7 8 4.1 12.6 4.1s9.2-1.4 12.6-4.1l344.7-268.6c6.9-5.4 12.6-17 12.6-25.9v-482.4c.2-8.8-6.6-18.3-14.9-21.2zm-172.4 170.8-212.6 292.7a16.1 16.1 0 0 1 -26 0l-126.4-174c-3.8-5.3 0-12.7 6.5-12.7h55.2c5.1 0 10 2.5 13 6.6l64.7 89 150.9-207.8c3-4.1 7.8-6.6 13-6.6h55.2c6.5.1 10.3 7.5 6.5 12.8z"/></svg>